:SAMPLES-PER-SECOND 30
:FULLY-SPECIFIED
:DEGREES
1
root  2.09241 41.0817 -1.32617 -42.7561 -89.8837 42.7551
RightUpLeg  1.48914 -7.69062 -5.59209
RightLeg  1.66104 -2.83126 3.18836
RightFoot  -1.88589 -0.0466617 0.356824
RightToes  -4.65663e-010 0 -3.6325e-017
Spine  0.00111171 0.00479781 -0.136042
Spine1  0.00501693 0.00147929 -0.0603728
HEad  0.00756112 -0.0078925 0.0132774
LeftShoulder1  0.20874 1.70315 -3.25774
LeftArm  -13.4095 -1.43875 2.51214
LeftForeArm  13.4026 1.02353 -4.49767
LeftHand  -0.244104 0.0205437 5.32207
RightShoulder  0.511723 1.30224 2.49294
RightArm  -14.3433 7.91594 -1.78328
RightForeArm  13.128 -3.15608 4.8608
RightHand  -0.142325 -1.72531 -4.62602
LeftUpLeg  1.49739 6.18183 4.94394
LeftLeg  0.644194 10.3838 -4.10474
LeftFoot  -1.47404 0.0486294 -0.4733
LeftToes  4.18335e-011 1.59304e-011 3.38507e-012
2
root  2.0894 41.0817 -1.32617 -50.2391 -89.8837 50.2296
RightUpLeg  1.49804 -7.69649 -5.60106
RightLeg  1.66911 -2.80926 3.18558
RightFoot  -1.88768 -0.0475057 0.369927
RightToes  -4.65663e-010 0 -3.6325e-017
Spine  0.00263833 -0.00812546 -0.103376
Spine1  0.0202674 0.0221257 -0.111664
HEad  0.0365858 -0.03753 0.0722948
LeftShoulder1  0.209785 1.67375 -3.19302
LeftArm  -13.4035 -1.38537 2.48701
LeftForeArm  13.4206 0.983061 -4.49373
LeftHand  -0.244104 0.0205437 5.32207
RightShoulder  0.51173 1.3024 2.53585
RightArm  -14.3439 7.94109 -1.80088
RightForeArm  13.1755 -3.18748 4.86033
RightHand  -0.144064 -1.7651 -4.51321
LeftUpLeg  1.52528 6.1819 4.94289
LeftLeg  0.624428 10.3967 -4.11264
LeftFoot  -1.47355 0.0481614 -0.466026
LeftToes  4.18335e-011 1.59304e-011 3.38507e-012
3
root  2.08525 41.0817 -1.32617 -61.1798 -89.8837 61.1636
RightUpLeg  1.4985 -7.7027 -5.61283
RightLeg  1.69261 -2.78481 3.1825
RightFoot  -1.8951 -0.0480151 0.377834
RightToes  -4.65663e-010 0 -3.6325e-017
Spine  0.0122002 -0.0593148 -0.0951233
Spine1  0.0429233 0.0646826 -0.125584
HEad  0.0431533 -0.0862157 0.147431
LeftShoulder1  0.214758 1.61831 -3.13054
LeftArm  -13.396 -1.27093 2.4803
LeftForeArm  13.4755 0.911233 -4.4818
LeftHand  -0.244104 0.0205437 5.32207
RightShoulder  0.511735 1.30172 2.56688
RightArm  -14.3172 7.95488 -1.79939
RightForeArm  13.0935 -3.22173 4.87674
RightHand  -0.14621 -1.79227 -4.43261
LeftUpLeg  1.5653 6.18117 4.93811
LeftLeg  0.580097 10.4124 -4.13174
LeftFoot  -1.46975 0.0487776 -0.475602
LeftToes  4.18335e-011 1.59304e-011 3.38507e-012
4
root  2.08236 41.0817 -1.32617 -65.4576 -89.8837 65.4504
RightUpLeg  1.48327 -7.70472 -5.61943
RightLeg  1.71039 -2.78037 3.18217
RightFoot  -1.9022 -0.0488763 0.391202
RightToes  -4.65663e-010 0 -3.6325e-017
Spine  0.0151992 -0.036502 -0.0887468
Spine1  0.0720778 0.0429815 -0.115472
HEad  -0.0166881 -0.197395 0.214897
LeftShoulder1  0.222273 1.54478 -3.09126
LeftArm  -13.4133 -1.1849 2.46603
LeftForeArm  13.5462 0.918147 -4.456
LeftHand  -0.244104 0.0205437 5.32207
RightShoulder  0.511735 1.2924 2.55894
RightArm  -14.3069 7.9152 -1.76423
RightForeArm  12.9348 -3.23187 4.8851
RightHand  -0.149373 -1.77495 -4.4826
LeftUpLeg  1.57647 6.17518 4.93028
LeftLeg  0.546505 10.4229 -4.1403
LeftFoot  -1.46142 0.0506344 -0.50446
LeftToes  4.18335e-011 1.59304e-011 3.38507e-012
